M48
; DRILL file {KiCad (5.1.5)-3} date 10/11/2020 8:41:06 PM
; FORMAT={-:-/ absolute / inch / decimal}
; #@! TF.CreationDate,2020-10-11T20:41:06-04:00
; #@! TF.GenerationSoftware,Kicad,Pcbnew,(5.1.5)-3
FMAT,2
INCH
T1C0.0157
T2C0.0315
T3C0.0394
%
G90
G05
T1
X4.25Y-4.11
X4.77Y-4.11
X5.81Y-4.11
X6.85Y-4.11
X7.94Y-4.11
T2
X7.35Y-4.0031
X7.35Y-4.2
X6.4506Y-3.23
X6.4506Y-3.53
X6.5506Y-3.23
X6.5506Y-3.53
X6.6506Y-3.23
X6.6506Y-3.53
X6.7506Y-3.23
X6.7506Y-3.53
X6.8506Y-3.23
X6.8506Y-3.53
X6.9506Y-3.23
X6.9506Y-3.53
X7.0506Y-3.23
X7.0506Y-3.53
X7.1506Y-3.23
X7.1506Y-3.53
X5.35Y-3.05
X5.45Y-3.05
X5.55Y-3.05
X5.65Y-3.05
X5.75Y-3.05
X5.85Y-3.05
X5.95Y-3.05
X6.05Y-3.05
X6.15Y-3.05
X6.4494Y-3.92
X6.4494Y-4.22
X6.5494Y-3.92
X6.5494Y-4.22
X6.6494Y-3.92
X6.6494Y-4.22
X6.7494Y-3.92
X6.7494Y-4.22
X6.8494Y-3.92
X6.8494Y-4.22
X6.9494Y-3.92
X6.9494Y-4.22
X7.0494Y-3.92
X7.0494Y-4.22
X7.1494Y-3.92
X7.1494Y-4.22
X4.23Y-4.0031
X4.23Y-4.2
X4.3Y-3.05
X4.4Y-3.05
X4.5Y-3.05
X4.6Y-3.05
X4.7Y-3.05
X4.8Y-3.05
X4.9Y-3.05
X5.0Y-3.05
X5.1Y-3.05
X5.25Y-4.0031
X5.25Y-4.2
X3.25Y-3.05
X3.35Y-3.05
X3.45Y-3.05
X3.55Y-3.05
X3.65Y-3.05
X3.75Y-3.05
X3.85Y-3.05
X3.95Y-3.05
X4.05Y-3.05
X8.5306Y-3.23
X8.5306Y-3.53
X8.6306Y-3.23
X8.6306Y-3.53
X8.7306Y-3.23
X8.7306Y-3.53
X8.8306Y-3.23
X8.8306Y-3.53
X8.9306Y-3.23
X8.9306Y-3.53
X9.0306Y-3.23
X9.0306Y-3.53
X9.1306Y-3.23
X9.1306Y-3.53
X9.2306Y-3.23
X9.2306Y-3.53
X7.45Y-3.05
X7.55Y-3.05
X7.65Y-3.05
X7.75Y-3.05
X7.85Y-3.05
X7.95Y-3.05
X8.05Y-3.05
X8.15Y-3.05
X8.25Y-3.05
X3.32Y-3.92
X3.32Y-4.22
X3.42Y-3.92
X3.42Y-4.22
X3.52Y-3.92
X3.52Y-4.22
X3.62Y-3.92
X3.62Y-4.22
X3.72Y-3.92
X3.72Y-4.22
X3.82Y-3.92
X3.82Y-4.22
X3.92Y-3.92
X3.92Y-4.22
X4.02Y-3.92
X4.02Y-4.22
X3.33Y-3.23
X3.33Y-3.53
X3.43Y-3.23
X3.43Y-3.53
X3.53Y-3.23
X3.53Y-3.53
X3.63Y-3.23
X3.63Y-3.53
X3.73Y-3.23
X3.73Y-3.53
X3.83Y-3.23
X3.83Y-3.53
X3.93Y-3.23
X3.93Y-3.53
X4.03Y-3.23
X4.03Y-3.53
X8.5Y-3.05
X8.6Y-3.05
X8.7Y-3.05
X8.8Y-3.05
X8.9Y-3.05
X9.0Y-3.05
X9.1Y-3.05
X9.2Y-3.05
X9.3Y-3.05
X3.18Y-4.0031
X3.18Y-4.2
X5.4094Y-3.92
X5.4094Y-4.22
X5.5094Y-3.92
X5.5094Y-4.22
X5.6094Y-3.92
X5.6094Y-4.22
X5.7094Y-3.92
X5.7094Y-4.22
X5.8094Y-3.92
X5.8094Y-4.22
X5.9094Y-3.92
X5.9094Y-4.22
X6.0094Y-3.92
X6.0094Y-4.22
X6.1094Y-3.92
X6.1094Y-4.22
X6.3Y-4.0031
X6.3Y-4.2
X4.3694Y-3.92
X4.3694Y-4.22
X4.4694Y-3.92
X4.4694Y-4.22
X4.5694Y-3.92
X4.5694Y-4.22
X4.6694Y-3.92
X4.6694Y-4.22
X4.7694Y-3.92
X4.7694Y-4.22
X4.8694Y-3.92
X4.8694Y-4.22
X4.9694Y-3.92
X4.9694Y-4.22
X5.0694Y-3.92
X5.0694Y-4.22
X4.3706Y-3.23
X4.3706Y-3.53
X4.4706Y-3.23
X4.4706Y-3.53
X4.5706Y-3.23
X4.5706Y-3.53
X4.6706Y-3.23
X4.6706Y-3.53
X4.7706Y-3.23
X4.7706Y-3.53
X4.8706Y-3.23
X4.8706Y-3.53
X4.9706Y-3.23
X4.9706Y-3.53
X5.0706Y-3.23
X5.0706Y-3.53
X5.4106Y-3.23
X5.4106Y-3.53
X5.5106Y-3.23
X5.5106Y-3.53
X5.6106Y-3.23
X5.6106Y-3.53
X5.7106Y-3.23
X5.7106Y-3.53
X5.8106Y-3.23
X5.8106Y-3.53
X5.9106Y-3.23
X5.9106Y-3.53
X6.0106Y-3.23
X6.0106Y-3.53
X6.1106Y-3.23
X6.1106Y-3.53
X6.4Y-3.05
X6.5Y-3.05
X6.6Y-3.05
X6.7Y-3.05
X6.8Y-3.05
X6.9Y-3.05
X7.0Y-3.05
X7.1Y-3.05
X7.2Y-3.05
X7.4906Y-3.23
X7.4906Y-3.53
X7.5906Y-3.23
X7.5906Y-3.53
X7.6906Y-3.23
X7.6906Y-3.53
X7.7906Y-3.23
X7.7906Y-3.53
X7.8906Y-3.23
X7.8906Y-3.53
X7.9906Y-3.23
X7.9906Y-3.53
X8.0906Y-3.23
X8.0906Y-3.53
X8.1906Y-3.23
X8.1906Y-3.53
X8.5294Y-3.92
X8.5294Y-4.22
X8.6294Y-3.92
X8.6294Y-4.22
X8.7294Y-3.92
X8.7294Y-4.22
X8.8294Y-3.92
X8.8294Y-4.22
X8.9294Y-3.92
X8.9294Y-4.22
X9.0294Y-3.92
X9.0294Y-4.22
X9.1294Y-3.92
X9.1294Y-4.22
X9.2294Y-3.92
X9.2294Y-4.22
X8.38Y-4.0031
X8.38Y-4.2
X7.4894Y-3.92
X7.4894Y-4.22
X7.5894Y-3.92
X7.5894Y-4.22
X7.6894Y-3.92
X7.6894Y-4.22
X7.7894Y-3.92
X7.7894Y-4.22
X7.8894Y-3.92
X7.8894Y-4.22
X7.9894Y-3.92
X7.9894Y-4.22
X8.0894Y-3.92
X8.0894Y-4.22
X8.1894Y-3.92
X8.1894Y-4.22
T3
X4.4918Y-2.4289
X4.4918Y-2.5511
X4.553Y-2.657
X4.553Y-2.323
X4.6589Y-2.7182
X4.6589Y-2.2618
X4.7811Y-2.7182
X4.887Y-2.657
X4.887Y-2.323
X4.9482Y-2.4289
X4.9482Y-2.5511
X3.04Y-3.45
X3.04Y-3.55
X3.04Y-3.65
X3.04Y-3.75
X3.04Y-3.85
X3.04Y-3.95
X3.04Y-4.05
X8.6518Y-2.4289
X8.6518Y-2.5511
X8.713Y-2.657
X8.713Y-2.323
X8.8189Y-2.7182
X8.8189Y-2.2618
X8.9411Y-2.7182
X9.047Y-2.657
X9.047Y-2.323
X9.1082Y-2.4289
X9.1082Y-2.5511
X3.4218Y-2.4289
X3.4218Y-2.5511
X3.483Y-2.657
X3.483Y-2.323
X3.5889Y-2.7182
X3.5889Y-2.2618
X3.7111Y-2.7182
X3.817Y-2.657
X3.817Y-2.323
X3.8782Y-2.4289
X3.8782Y-2.5511
X7.6118Y-2.4289
X7.6118Y-2.5511
X7.673Y-2.657
X7.673Y-2.323
X7.7789Y-2.7182
X7.7789Y-2.2618
X7.9011Y-2.7182
X8.007Y-2.657
X8.007Y-2.323
X8.0682Y-2.4289
X8.0682Y-2.5511
X5.5318Y-2.4289
X5.5318Y-2.5511
X5.593Y-2.657
X5.593Y-2.323
X5.6989Y-2.7182
X5.6989Y-2.2618
X5.8211Y-2.7182
X5.927Y-2.657
X5.927Y-2.323
X5.9882Y-2.4289
X5.9882Y-2.5511
X6.5718Y-2.4289
X6.5718Y-2.5511
X6.633Y-2.657
X6.633Y-2.323
X6.7389Y-2.7182
X6.7389Y-2.2618
X6.8611Y-2.7182
X6.967Y-2.657
X6.967Y-2.323
X7.0282Y-2.4289
X7.0282Y-2.5511
T0
M30
